{
	"asset":{
		"generator":"Khronos glTF Blender I/O v4.2.57",
		"version":"2.0"
	},
	"scene":0,
	"scenes":[
		{
			"name":"Scene",
			"nodes":[
				0,
				1,
				2,
				3
			]
		}
	],
	"nodes":[
		{
			"mesh":0,
			"name":"Sphere.001",
			"scale":[
				0.40930452942848206,
				0.4323593080043793,
				0.22727860510349274
			],
			"translation":[
				-0.016653453931212425,
				0.037927016615867615,
				-2.5024476051330566
			]
		},
		{
			"mesh":1,
			"name":"Plane.001",
			"rotation":[
				0.7071068286895752,
				0,
				0,
				0.7071068286895752
			],
			"scale":[
				0.9926189184188843,
				0.49752214550971985,
				0.49752214550971985
			],
			"translation":[
				-0.04255811125040054,
				0.09601563960313797,
				-8.753049850463867
			]
		},
		{
			"mesh":2,
			"name":"Circle",
			"rotation":[
				0.7071068286895752,
				0,
				0,
				0.7071068286895752
			],
			"scale":[
				1.683891773223877,
				1.559195876121521,
				1.559195876121521
			],
			"translation":[
				-0.03145796060562134,
				0.07345784455537796,
				-1.6521806716918945
			]
		},
		{
			"mesh":3,
			"name":"Plane",
			"rotation":[
				0.7071068286895752,
				0,
				0,
				0.7071068286895752
			],
			"scale":[
				0.9926189184188843,
				0.49752214550971985,
				0.49752214550971985
			],
			"translation":[
				-0.04255811125040054,
				0.09601563960313797,
				-8.753049850463867
			]
		}
	],
	"materials":[
		{
			"doubleSided":true,
			"emissiveFactor":[
				0,
				0.4541458189487457,
				0.008761910139583051
			],
			"name":"Material",
			"pbrMetallicRoughness":{
				"baseColorFactor":[
					0,
					0,
					0,
					1
				]
			}
		},
		{
			"doubleSided":true,
			"name":"Material.005"
		},
		{
			"doubleSided":true,
			"name":"Material.004"
		}
	],
	"meshes":[
		{
			"name":"Sphere.001",
			"primitives":[
				{
					"attributes":{
						"POSITION":0,
						"NORMAL":1,
						"TEXCOORD_0":2
					},
					"indices":3,
					"material":0
				}
			]
		},
		{
			"name":"Plane.001",
			"primitives":[
				{
					"attributes":{
						"POSITION":4,
						"NORMAL":5
					},
					"indices":6,
					"material":1
				}
			]
		},
		{
			"name":"Circle",
			"primitives":[
				{
					"attributes":{
						"POSITION":7,
						"NORMAL":8
					},
					"indices":9,
					"material":2
				}
			]
		},
		{
			"name":"Plane",
			"primitives":[
				{
					"attributes":{
						"POSITION":10,
						"NORMAL":11
					},
					"indices":12,
					"material":2
				}
			]
		}
	],
	"accessors":[
		{
			"bufferView":0,
			"componentType":5126,
			"count":1984,
			"max":[
				1.005759358406067,
				1.0588674545288086,
				1.0065730810165405
			],
			"min":[
				-1.0057590007781982,
				-0.9807853102684021,
				-1
			],
			"type":"VEC3"
		},
		{
			"bufferView":1,
			"componentType":5126,
			"count":1984,
			"type":"VEC3"
		},
		{
			"bufferView":2,
			"componentType":5126,
			"count":1984,
			"type":"VEC2"
		},
		{
			"bufferView":3,
			"componentType":5123,
			"count":2880,
			"type":"SCALAR"
		},
		{
			"bufferView":4,
			"componentType":5126,
			"count":374,
			"max":[
				0.11042474955320358,
				12.990553855895996,
				-3.211581230163574
			],
			"min":[
				-0.0722392350435257,
				12.528227806091309,
				-3.723947763442993
			],
			"type":"VEC3"
		},
		{
			"bufferView":5,
			"componentType":5126,
			"count":374,
			"type":"VEC3"
		},
		{
			"bufferView":6,
			"componentType":5123,
			"count":894,
			"type":"SCALAR"
		},
		{
			"bufferView":7,
			"componentType":5126,
			"count":16614,
			"max":[
				1.0556707382202148,
				-0.041209008544683456,
				1.0572774410247803
			],
			"min":[
				-1.0566442012786865,
				-0.21167409420013428,
				-1.0560239553451538
			],
			"type":"VEC3"
		},
		{
			"bufferView":8,
			"componentType":5126,
			"count":16614,
			"type":"VEC3"
		},
		{
			"bufferView":9,
			"componentType":5123,
			"count":26922,
			"type":"SCALAR"
		},
		{
			"bufferView":10,
			"componentType":5126,
			"count":35748,
			"max":[
				2.4150900840759277,
				13.698339462280273,
				3.769496440887451
			],
			"min":[
				-2.376904010772705,
				11.730945587158203,
				-3.2790708541870117
			],
			"type":"VEC3"
		},
		{
			"bufferView":11,
			"componentType":5126,
			"count":35748,
			"type":"VEC3"
		},
		{
			"bufferView":12,
			"componentType":5123,
			"count":56616,
			"type":"SCALAR"
		}
	],
	"bufferViews":[
		{
			"buffer":0,
			"byteLength":23808,
			"byteOffset":0,
			"target":34962
		},
		{
			"buffer":0,
			"byteLength":23808,
			"byteOffset":23808,
			"target":34962
		},
		{
			"buffer":0,
			"byteLength":15872,
			"byteOffset":47616,
			"target":34962
		},
		{
			"buffer":0,
			"byteLength":5760,
			"byteOffset":63488,
			"target":34963
		},
		{
			"buffer":0,
			"byteLength":4488,
			"byteOffset":69248,
			"target":34962
		},
		{
			"buffer":0,
			"byteLength":4488,
			"byteOffset":73736,
			"target":34962
		},
		{
			"buffer":0,
			"byteLength":1788,
			"byteOffset":78224,
			"target":34963
		},
		{
			"buffer":0,
			"byteLength":199368,
			"byteOffset":80012,
			"target":34962
		},
		{
			"buffer":0,
			"byteLength":199368,
			"byteOffset":279380,
			"target":34962
		},
		{
			"buffer":0,
			"byteLength":53844,
			"byteOffset":478748,
			"target":34963
		},
		{
			"buffer":0,
			"byteLength":428976,
			"byteOffset":532592,
			"target":34962
		},
		{
			"buffer":0,
			"byteLength":428976,
			"byteOffset":961568,
			"target":34962
		},
		{
			"buffer":0,
			"byteLength":113232,
			"byteOffset":1390544,
			"target":34963
		}
	],
	"buffers":[
		{
			"byteLength":1503776,
			"uri":"scene.bin"
		}
	]
}
