{
	"asset":{
		"generator":"Khronos glTF Blender I/O v4.2.57",
		"version":"2.0"
	},
	"scene":0,
	"scenes":[
		{
			"name":"Scene",
			"nodes":[
				4
			]
		}
	],
	"nodes":[
		{
			"mesh":0,
			"name":"Object_4",
			"translation":[
				0,
				0,
				1.195212721824646
			]
		},
		{
			"children":[
				0
			],
			"name":"model.001_0",
			"rotation":[
				0.7071069478988647,
				0,
				0,
				0.7071066498756409
			],
			"scale":[
				2.4208052158355713,
				2.4208054542541504,
				2.4208054542541504
			],
			"translation":[
				-0.018901415169239044,
				4.748697757720947,
				0
			]
		},
		{
			"children":[
				1
			],
			"name":"GLTF_SceneRootNode",
			"rotation":[
				0.70710688829422,
				0,
				0,
				0.7071066498756409
			]
		},
		{
			"children":[
				2
			],
			"name":"root"
		},
		{
			"children":[
				3
			],
			"name":"Sketchfab_model",
			"rotation":[
				-0.70710688829422,
				0,
				0,
				0.7071066498756409
			]
		}
	],
	"materials":[
		{
			"doubleSided":true,
			"name":"Material.002",
			"pbrMetallicRoughness":{
				"baseColorTexture":{
					"index":0
				},
				"metallicFactor":0,
				"roughnessFactor":0.5
			}
		}
	],
	"meshes":[
		{
			"name":"Object_0",
			"primitives":[
				{
					"attributes":{
						"POSITION":0,
						"NORMAL":1,
						"TEXCOORD_0":2
					},
					"indices":3,
					"material":0
				}
			]
		}
	],
	"textures":[
		{
			"sampler":0,
			"source":0
		}
	],
	"images":[
		{
			"mimeType":"image/png",
			"name":"Material.002_baseColor",
			"uri":"Material_002_baseColor.png"
		}
	],
	"accessors":[
		{
			"bufferView":0,
			"componentType":5126,
			"count":13432,
			"max":[
				0.6923181414604187,
				0.7626680135726929,
				0.8796449899673462
			],
			"min":[
				-0.6918389797210693,
				-0.7712560296058655,
				-0.8829960227012634
			],
			"type":"VEC3"
		},
		{
			"bufferView":1,
			"componentType":5126,
			"count":13432,
			"type":"VEC3"
		},
		{
			"bufferView":2,
			"componentType":5126,
			"count":13432,
			"type":"VEC2"
		},
		{
			"bufferView":3,
			"componentType":5123,
			"count":58647,
			"type":"SCALAR"
		}
	],
	"bufferViews":[
		{
			"buffer":0,
			"byteLength":161184,
			"byteOffset":0,
			"target":34962
		},
		{
			"buffer":0,
			"byteLength":161184,
			"byteOffset":161184,
			"target":34962
		},
		{
			"buffer":0,
			"byteLength":107456,
			"byteOffset":322368,
			"target":34962
		},
		{
			"buffer":0,
			"byteLength":117294,
			"byteOffset":429824,
			"target":34963
		}
	],
	"samplers":[
		{
			"magFilter":9729,
			"minFilter":9987
		}
	],
	"buffers":[
		{
			"byteLength":547120,
			"uri":"scene.bin"
		}
	]
}
