<?xml version="1.0" encoding="UTF-8"?>
<svg id="Layer_1" xmlns="http://www.w3.org/2000/svg" viewBox="0 0 893 893">
  <path d="M747.47,425.71c-1.25,57.36-14.21,107.91-34.28,157.01-10.12,24.74-23.66,47.06-43.42,64.95-9.31,8.43-20.34,15.22-31.35,21.41-9.79,5.51-19.32,2.02-24.22-7.54-6.71-13.08-15.31-26.91-16.01-40.78-.54-10.6,7.5-24.38,15.95-32.18,26.78-24.73,51.61-51.16,68.98-82.94,10.6-19.4,17.66-41.66,21.7-63.48,4.9-26.49,4.86-53.89,7.15-80.88.49-5.71,1.21-11.55,3.04-16.92,1.16-3.4,5.06-8.78,6.83-8.45,3.66.68,8.8,4.01,9.69,7.26,5.19,18.9,9.79,38,13.64,57.22,1.92,9.59,1.82,19.59,2.3,25.33Z"/>
  <path d="M194.62,413.09c13.91.83,27.18-4.53,37.76-18.54,9.44-12.49,23.36-15.05,31.22-8.38,5.97,5.07,4.07,18.96-3.97,30.5-13.52,19.4-34.33,26.42-55.65,31.24-50.67,11.47-91.93-9.67-125.06-44.34-23.49-24.58-25.52-54.35,1.99-89.31,20.34-25.85,46.87-43.77,82.15-42.62,11.32.37,22.61,1.45,33.92,1.99,17.72.84,26.9,12.44,33.43,26.88,1.25,2.76.89,7.45-.75,9.9-1.08,1.62-6.29,2.01-8.76.92-20.12-8.88-41.3-10.2-62.79-9.75-19.31.41-34.54,9.43-47.04,23.35-10.39,11.56-8.16,25.12-1.79,36.88,15.06,27.78,47.59,53.32,85.33,51.29Z"/>
  <path d="M607.7,296.71c-3.66-10.42-7.79-20.71-10.88-31.3-6.22-21.34,4.91-34.29,27.05-31.08,10.66,1.55,22.32,2.81,31.24,8.09,12.93,7.65,12.31,17.63,1.37,28.24-6.44,6.24-12.86,12.53-19.01,19.05-2.76,2.93-4.84,6.49-5.91,12.79,3.39-1.23,6.71-2.8,10.2-3.63,6.78-1.6,15.64-5.99,19.98-3.31,5.09,3.15,8.44,12.52,8.68,19.33.38,10.64,1.85,25.62-10.53,28.75-7.67,1.94-18.01-6.7-29.34-11.51-.32.57-3.87,4.05-3.89,7.55-.14,22.14.59,44.28.84,66.42.09,7.7,1.1,15.82-.95,23.01-3.32,11.68-26.04,18.33-40.77,13.12-10.96-3.88-15.86-15.71-10.69-30.08,8.06-22.4,17.38-44.34,25.74-66.63,1.35-3.61.48-8.06.63-12.12-3.87.05-7.86-.48-11.58.27-6.83,1.38-13.49,4.77-20.26,4.88-3.97.07-11.6-4.85-11.43-7.05.9-11.64,1.77-24.03,6.47-34.42,4.82-10.65,15.76-10.65,27.62-3.3,4.21,2.61,8.79,4.62,13.2,6.91.74-1.33,1.48-2.65,2.21-3.98Z"/>
  <path d="M431.17,783.33c10.96-28.56,18.88-58.81,33.57-85.3,23.81-42.92,62.27-52.23,104.93-32.87,13.46,6.11,18.93,18.15,14.07,32.92-11.77,35.82-30.61,62.39-75.38,64.39-7.37.33-14.79,1.9-22.06,1.34-17.5-1.35-32.5,2.49-43.86,16.89-1.86,2.36-5.23,3.54-7.89,5.26-1.13-.88-2.25-1.75-3.38-2.63Z"/>
  <path d="M475.47,347.97c-3.44,1.88-5.51,3.05-7.62,4.15-6.49,3.38-14.86,6.36-18.41-1.08-2.55-5.35.16-13.74,1.96-20.39.82-3.03,4.8-6.78,7.86-7.34,13.82-2.52,14.62-12.63,17.26-23.66,2.71-11.26,8.53-22.07,14.51-32.17,7.42-12.55,19.3-17.34,33.81-14.15,14.53,3.2,23.39,13.23,25.29,27.02,1.76,12.77.39,26.07-.59,39.07-.76,10.15-8.76,10.91-16.58,9.68-7.77-1.22-12.72-5.15-11.12-14.35.97-5.55,1.37-11.34.94-16.93-.16-2.09-3.13-4.8-5.39-5.57-1.44-.49-4.37,1.67-5.85,3.34-9.55,10.8-8.47,18.3,3.4,25.48,12.2,7.39,17.15,18.82,13.19,34.7-9.29-4.29-18.12-8.37-29.16-13.47,2.24,19.02,4.43,36.29,6.24,53.59.64,6.11.97,12.38.31,18.46-1.5,13.9-11.35,20.25-25.75,17.26-9.81-2.03-12.74-10.63-9.94-23.65,3.28-15.19,5.5-30.63,7.56-46.05.56-4.17-1.13-8.64-1.94-13.95Z"/>
  <path d="M334.4,520.42c3.19,9.57,6.9,18.29,8.93,27.38,3.37,15.06-10.37,27.74-25.33,23.88-12.3-3.18-8.89-12.14-7.88-20.84.84-7.3,1.65-15.48-.79-22.06-3.67-9.91-12.25-11.95-20.73-8.17,3.16,14.74,7.29,28.45,8.51,42.41.48,5.52-4.24,14.88-8.86,16.68-6.85,2.67-16.15,1.53-23.5-.82-2.93-.94-5.28-9.65-4.7-14.44,1.41-11.64,4.69-23.05,7.09-33.97-1.72-1.36-2.42-2.33-2.92-2.24-8.62,1.6-17.33,1.34-20.32-8.19-1.33-4.25.92-13.07,4.05-14.56,7.12-3.4,15.75-3.97,23.85-4.83,4.31-.46,8.81,1.1,13.24,1.32,4.08.21,9.05-1.71,12.13,0,12.92,7.16,23.26,2.28,35.1-3.67,23.77-11.95,55.32,9.58,58.25,38.82.61,6.11.55,12.39-.04,18.51-1.22,12.49-11.24,21.43-23.05,21.22-11.6-.21-16.99-5.99-16.79-17.61.18-10.63.81-21.34-.1-31.89-.92-10.74-5.14-12.25-16.15-6.92Z"/>
  <path d="M419.53,418.69c-10.43,3.12-21.23,8.37-32.36,9.23-20.16,1.56-34.29-13.64-30.97-33.52,2.96-17.7,8.35-35.1,13.99-52.2,3.49-10.58,15.59-14.48,29.16-12.65,4.82.65,9.96-1.12,14.96-1.69,5.73-.65,14.5-3.68,16.54-1.21,3.72,4.49,3.79,12.24,4.76,18.71,2.31,15.47,4.2,31.01,6.49,46.49.18,1.21,2.04,2.37,3.35,3.17,11.22,6.82,13.42,26.54,2.87,33.64-3.54,2.39-10.52,2.28-14.71.48-5.8-2.48-10.46-7.63-14.09-10.46ZM379.82,391.79c3.01,4.11,5.84,10.76,8.11,10.57,6.65-.55,14.79-2.07,19.22-6.4,7.54-7.37,5.02-17.98,2.84-27.4-.78-3.38-3.27-9.03-4.94-9.01-4.36.03-10.76,1.36-12.66,4.44-5.03,8.18-8.12,17.55-12.56,27.8Z"/>
  <path d="M508.5,505.44c-8.77-.9-17.74-2.82-16.89-13.59.49-6.14,3.51-14.34,8.11-17.16,3.6-2.2,11.38,2.52,17.33,4.02,4.08,1.03,8.88,3.63,12.25,2.43,33.46-11.97,53.77,6.65,59.32,34.11,2.19,10.81,4.75,21.85,4.54,32.73-.12,6.27-4.06,15.93-8.79,17.83-7.4,2.97-17.26,1.95-25.34-.17-2.53-.66-4.19-10.48-3.65-15.85,1.4-13.79,4.89-27.36,6.28-41.15.75-7.42-1.54-15.64-11.03-16.02-7.95-.33-12.71,9.15-11.62,19.15,1.37,12.53,3.55,25.21,2.78,37.66-.94,15.16-18.65,23.63-31.35,15.58-3.31-2.1-6-8.09-5.85-12.18.57-15.45,2.42-30.85,3.9-47.4Z"/>
  <path d="M457.93,562.15c-11.78,3.14-21.96,7.63-32.36,8.23-17.25,1-28.54-12.47-25.4-29.48,2.74-14.81,6.54-29.53,11.34-43.81,3.46-10.29,11.6-15.11,23.3-13.55,5.7.76,11.69-.86,17.56-1.13,4.97-.23,11.69-2,14.49.47,3.04,2.68,2.72,9.45,3.38,14.5,1.8,13.85,1.63,28.29,5.81,41.35,1.78,5.56,13.02,8.31,9.99,17.8-1.83,5.72-4.37,14.68-8.07,15.5-5.18,1.15-11.89-3.65-17.63-6.52-1.85-.92-2.71-3.81-2.41-3.35ZM420.24,539.06c2.84,3.97,4.43,8.41,7.44,9.8,3.06,1.42,8.24,1.08,11.22-.66,12.09-7.09,10.92-18.67,8.49-30.12-.6-2.84-2.59-7.4-4.29-7.56-3.56-.35-9.24.55-10.71,2.97-4.77,7.83-8.03,16.57-12.15,25.56Z"/>
  <path d="M302.31,348.27c5.41-3.97,10.06-8.15,15.37-11.13,10.94-6.14,23.04-3.21,29.44,6.49,6.6,10.01,4.6,23.4-4.58,31.18-9.85,8.35-18.2,2.67-29.41-5.86,2.95,16.47,5.14,29.48,7.64,42.43,2.38,12.31-2.5,19.39-15.28,21.58-10.55,1.81-17.17-2.45-17.64-14.7-.52-13.36,1.53-26.85,2.93-40.23,1.02-9.72.64-17.48-10.89-21.52-4.7-1.64-9.15-7.76-10.78-12.79-.79-2.44,5.13-10.06,8.1-10.11,6.69-.11,13.76,2.32,20.01,5.19,2.58,1.18,3.42,6.14,5.1,9.46Z"/>
  <path d="M562.94,633.3c22.59-.39,48.74,25.91,47.49,45.58-.34,5.32-3.52,10.86-6.67,15.42-1.71,2.48-6.14,4.2-9.27,4.11-1.55-.05-4.05-4.92-4.24-7.73-1.65-25.02-19.88-31.52-39.77-36.64-3.97-1.02-7.55-3.6-11.3-5.46,3.06-3.45,5.53-7.94,9.32-10.09,5.22-2.97,11.44-4.18,14.44-5.19Z"/>
</svg>